<svg xmlns="http://www.w3.org/2000/svg" width="1780" height="610" viewBox="0 0 1780 610"><defs><marker id="a" markerWidth="8" markerHeight="8" refX="7" refY="4" orient="auto"><path d="M0 0L8 4 0 8Z" fill="#333"/></marker><style>.tt{font:bold 18px 'Microsoft YaHei';fill:#222}.lh{font:bold 15px 'Microsoft YaHei';fill:#222}.tx{font:13px 'Microsoft YaHei';fill:#222}.sm{font:12px 'Microsoft YaHei';fill:#444}.b{fill:#fff;stroke:#c94747;stroke-width:1.4}.s{fill:#fff;stroke:#4f7d5b;stroke-width:1.4}.x,.d{fill:#fff;stroke:#555;stroke-width:1.3}.f{fill:none;stroke:#333;stroke-width:1.35;marker-end:url(#a)}</style></defs>
<rect width="1780" height="610" fill="#fff"/><text x="24" y="34" class="tt">流程编号及名称：（P-ZLTC-SCOS-KCYH-005 库存健康度评价与策略改进流程）</text><rect x="20" y="55" width="1740" height="490" fill="#fff" stroke="#555"/><rect x="20" y="55" width="145" height="490" fill="#f3f3f3" stroke="#555"/><path d="M20 177H1760M20 299H1760M20 421H1760" stroke="#aaa"/><text x="45" y="120" class="lh">统一数据服务层</text><text x="70" y="242" class="lh">SCOS</text><text x="49" y="364" class="lh">库存计划员</text><text x="49" y="486" class="lh">库存负责人</text>
<circle cx="195" cy="116" r="20" class="x"/><text x="195" y="121" text-anchor="middle" class="sm">开始</text><rect x="240" y="80" width="190" height="72" class="x"/><text x="335" y="104" text-anchor="middle" class="tx"><tspan x="335">10 提供策略与实际</tspan><tspan x="335" dy="19">库存执行数据</tspan></text><rect x="480" y="202" width="190" height="80" class="s"/><text x="575" y="225" text-anchor="middle" class="tx"><tspan x="575">20 生成库存健康度评价</tspan><tspan x="575" dy="19">周转、服务水平、缺货</tspan><tspan x="575" dy="19">滞销、呆滞与临期</tspan></text><rect x="720" y="324" width="185" height="72" class="b"/><text x="812" y="348" text-anchor="middle" class="tx"><tspan x="812">30 复核库存健康度</tspan><tspan x="812" dy="19">与策略有效性</tspan></text><polygon points="1000,316 1070,360 1000,404 930,360" class="d"/><text x="1000" y="355" text-anchor="middle" class="tx"><tspan x="1000">40 是否需要</tspan><tspan x="1000" dy="18">改进策略？</tspan></text><rect x="1120" y="324" width="185" height="72" class="b"/><text x="1212" y="348" text-anchor="middle" class="tx"><tspan x="1212">50 形成库存策略</tspan><tspan x="1212" dy="19">改进建议</tspan></text><polygon points="1390,438 1460,482 1390,526 1320,482" class="d"/><text x="1390" y="477" text-anchor="middle" class="tx"><tspan x="1390">60 是否纳入</tspan><tspan x="1390" dy="18">策略调整？</tspan></text><rect x="1500" y="207" width="150" height="70" class="s"/><text x="1575" y="231" text-anchor="middle" class="tx"><tspan x="1575">70 发布健康度报告</tspan><tspan x="1575" dy="19">与改进结论</tspan></text><circle cx="1710" cy="242" r="20" class="x"/><text x="1710" y="247" text-anchor="middle" class="sm">结束</text>
<path d="M215 116H240M430 116H455V242H480M670 242H695V360H720M905 360H930M1070 360H1120M1305 360H1390V438M1460 482H1480V242H1500M1650 242H1690" class="f"/><text x="1078" y="348" class="sm">Y</text><text x="1468" y="470" class="sm">Y</text><path d="M1000 404V430H1280V360H1305" class="f"/><text x="1040" y="424" class="sm">N：无参数改进建议</text><path d="M1390 438V416H1212V396" class="f"/><text x="1260" y="412" class="sm">N：保留建议待后续复核</text>
<text x="24" y="578" class="sm">健康度评价用于验证已发布策略的实际效果；改进建议只有经业务确认后才进入月度制定或异常调整流程。</text><g font-family="Microsoft YaHei" font-size="11" font-weight="bold" fill="#fff"><rect x="240" y="80" width="64" height="18" fill="#c94747"/><text x="272" y="93" text-anchor="middle">数据服务</text><rect x="480" y="202" width="42" height="18" fill="#4f7d5b"/><text x="501" y="215" text-anchor="middle">SCOS</text><rect x="720" y="324" width="42" height="18" fill="#4f7d5b"/><text x="741" y="337" text-anchor="middle">SCOS</text><rect x="930" y="318" width="42" height="18" fill="#4f7d5b"/><text x="951" y="331" text-anchor="middle">SCOS</text><rect x="1120" y="324" width="42" height="18" fill="#4f7d5b"/><text x="1141" y="337" text-anchor="middle">SCOS</text><rect x="1320" y="440" width="42" height="18" fill="#4f7d5b"/><text x="1341" y="453" text-anchor="middle">SCOS</text><rect x="1500" y="207" width="42" height="18" fill="#4f7d5b"/><text x="1521" y="220" text-anchor="middle">SCOS</text></g><path d="M520 292H660V332Q625 319 590 332Q555 345 520 332Z" fill="#fff" stroke="#666"/><text x="590" y="312" text-anchor="middle" class="sm">库存健康度报告</text><path d="M1145 408H1280V448Q1246 435 1212 448Q1179 461 1145 448Z" fill="#fff" stroke="#666"/><text x="1212" y="428" text-anchor="middle" class="sm">策略改进建议</text></svg>
