<?xml version="1.0" encoding="UTF-8"?>
<svg xmlns="http://www.w3.org/2000/svg" width="3480" height="732" viewBox="0 0 3480 732"><defs><marker id="arrow" markerWidth="9" markerHeight="9" refX="8.4" refY="4.5" orient="auto"><path d="M0 0L9 4.5 0 9Z" fill="#111"/></marker><style>.title{font:600 23px SimSun,'Songti SC',STSong,serif;fill:#222}.lane-text{font:16px SimSun,'Songti SC',STSong,serif;fill:#222}.node-text{font:16px SimSun,'Songti SC',STSong,serif;fill:#222}.small-text{font:15px SimSun,'Songti SC',STSong,serif;fill:#333}.note-text{font:14px SimSun,'Songti SC',STSong,serif;fill:#444}.tag-text{font:14px Arial,'Microsoft YaHei',sans-serif;fill:#fff}.node{fill:#fff;stroke:#999;stroke-width:1.2}.divider{stroke:#aaa;stroke-width:1}.flow{fill:none;stroke:#111;stroke-width:1.6;marker-end:url(#arrow)}.merge{fill:none;stroke:#111;stroke-width:1.6}.tag-scos{fill:#058fc7}.tag-data{fill:#08a05c}</style></defs><rect width="3480" height="732" fill="#fff"/><rect x="20" y="20" width="3440" height="632" fill="#fff" stroke="#aaa"/><text x="34" y="55" class="title">流程编号及名称：（P-ZLTC-SCOS-FYCB-004 费用池采集和分摊到批次流程）</text><rect x="20" y="82" width="3440" height="570" fill="#fff" stroke="#999"/><rect x="20" y="82" width="72" height="570" fill="#fafafa" stroke="#999"/><path d="M20 272H3460" class="divider"/><path d="M20 462H3460" class="divider"/><text x="56" y="151.5" text-anchor="middle" class="lane-text"><tspan x="56" dy="0">数</tspan><tspan x="56" dy="17">据</tspan><tspan x="56" dy="17">中</tspan><tspan x="56" dy="17">台</tspan></text><text x="56" y="341.5" text-anchor="middle" class="lane-text"><tspan x="56" dy="0">S</tspan><tspan x="56" dy="17">C</tspan><tspan x="56" dy="17">O</tspan><tspan x="56" dy="17">S</tspan></text><text x="56" y="523" text-anchor="middle" class="lane-text"><tspan x="56" dy="0">财</tspan><tspan x="56" dy="17">务</tspan><tspan x="56" dy="17">负</tspan><tspan x="56" dy="17">责</tspan><tspan x="56" dy="17">人</tspan></text><circle cx="145" cy="367" r="27" class="node"/><text x="145" y="372" text-anchor="middle" class="small-text">开始</text><rect x="192" y="129" width="236" height="96" class="node"/><rect x="192" y="129" width="70" height="20" class="tag-data"/><text x="227" y="144" text-anchor="middle" class="tag-text">数据中台</text><text x="310" y="169" text-anchor="middle" class="node-text"><tspan x="310">10</tspan><tspan x="310" dy="20">提供费用金额和动因数据</tspan></text><rect x="532" y="509" width="236" height="96" class="node"/><rect x="532" y="509" width="56" height="20" class="tag-scos"/><text x="560" y="524" text-anchor="middle" class="tag-text">SCOS</text><text x="650" y="539" text-anchor="middle" class="node-text"><tspan x="650">20</tspan><tspan x="650" dy="20">维护费用池范围和动因规</tspan><tspan x="650" dy="20">则</tspan></text><rect x="872" y="319" width="236" height="96" class="node"/><rect x="872" y="319" width="56" height="20" class="tag-scos"/><text x="900" y="334" text-anchor="middle" class="tag-text">SCOS</text><text x="990" y="359" text-anchor="middle" class="node-text"><tspan x="990">30</tspan><tspan x="990" dy="20">计算费用池可分摊金额</tspan></text><rect x="1212" y="319" width="236" height="96" class="node"/><rect x="1212" y="319" width="56" height="20" class="tag-scos"/><text x="1240" y="334" text-anchor="middle" class="tag-text">SCOS</text><text x="1330" y="359" text-anchor="middle" class="node-text"><tspan x="1330">40</tspan><tspan x="1330" dy="20">识别受益批次并计算分母</tspan></text><polygon points="1670,309 1758,367 1670,425 1582,367" class="node"/><rect x="1592" y="319" width="56" height="20" class="tag-scos"/><text x="1620" y="334" text-anchor="middle" class="tag-text">SCOS</text><text x="1670" y="359" text-anchor="middle" class="node-text"><tspan x="1670">50</tspan><tspan x="1670" dy="20">判断分摊依据是否有效</tspan></text><rect x="1892" y="509" width="236" height="96" class="node"/><rect x="1892" y="509" width="56" height="20" class="tag-scos"/><text x="1920" y="524" text-anchor="middle" class="tag-text">SCOS</text><text x="2010" y="549" text-anchor="middle" class="node-text"><tspan x="2010">60</tspan><tspan x="2010" dy="20">处理缺失动因和无效分母</tspan></text><rect x="2232" y="319" width="236" height="96" class="node"/><rect x="2232" y="319" width="56" height="20" class="tag-scos"/><text x="2260" y="334" text-anchor="middle" class="tag-text">SCOS</text><text x="2350" y="349" text-anchor="middle" class="node-text"><tspan x="2350">70</tspan><tspan x="2350" dy="20">计算分摊率批次金额和尾</tspan><tspan x="2350" dy="20">差</tspan></text><rect x="2572" y="319" width="236" height="96" class="node"/><rect x="2572" y="319" width="56" height="20" class="tag-scos"/><text x="2600" y="334" text-anchor="middle" class="tag-text">SCOS</text><text x="2690" y="359" text-anchor="middle" class="node-text"><tspan x="2690">80</tspan><tspan x="2690" dy="20">生成费用池分摊结果</tspan></text><rect x="2912" y="129" width="236" height="96" class="node"/><rect x="2912" y="129" width="70" height="20" class="tag-data"/><text x="2947" y="144" text-anchor="middle" class="tag-text">数据中台</text><text x="3030" y="169" text-anchor="middle" class="node-text"><tspan x="3030">90</tspan><tspan x="3030" dy="20">持久化费用池分摊结果</tspan></text><circle cx="3415" cy="177" r="27" class="node"/><text x="3415" y="182" text-anchor="middle" class="small-text">结束</text><path d="M332 95H508V138Q464 152 420 138Q376 124 332 138Z" class="node"/><text x="420" y="116" text-anchor="middle" class="small-text"><tspan x="420" dy="0">费用池金额与动因数据</tspan><tspan x="420" dy="16">集</tspan></text><path d="M672 475H848V518Q804 532 760 518Q716 504 672 518Z" class="node"/><text x="760" y="496" text-anchor="middle" class="small-text"><tspan x="760" dy="0">费用池规则版本</tspan></text><path d="M1012 285H1188V328Q1144 342 1100 328Q1056 314 1012 328Z" class="node"/><text x="1100" y="306" text-anchor="middle" class="small-text"><tspan x="1100" dy="0">费用池可分摊金额</tspan></text><path d="M1352 285H1528V328Q1484 342 1440 328Q1396 314 1352 328Z" class="node"/><text x="1440" y="306" text-anchor="middle" class="small-text"><tspan x="1440" dy="0">受益批次与动因清单</tspan></text><path d="M2372 285H2548V328Q2504 342 2460 328Q2416 314 2372 328Z" class="node"/><text x="2460" y="306" text-anchor="middle" class="small-text"><tspan x="2460" dy="0">费用池分摊计算明细</tspan></text><path d="M2712 285H2888V328Q2844 342 2800 328Q2756 314 2712 328Z" class="node"/><text x="2800" y="306" text-anchor="middle" class="small-text"><tspan x="2800" dy="0">费用池批次分摊结果</tspan></text><path d="M3052 95H3228V138Q3184 152 3140 138Q3096 124 3052 138Z" class="node"/><text x="3140" y="116" text-anchor="middle" class="small-text"><tspan x="3140" dy="0">费用池分摊结果版本</tspan></text><path d="M172 367H172V177H192" class="flow"/><path d="M428 177H512V557H532" class="flow"/><path d="M768 557H852V367H872" class="flow"/><path d="M1108 367H1212" class="flow"/><path d="M1448 367H1582" class="flow"/><path d="M1758 367H2232" class="flow"/><text x="1768" y="358" class="small-text">Y</text><path d="M2468 367H2572" class="flow"/><path d="M2808 367H2892V177H2912" class="flow"/><path d="M3148 177H3388" class="flow"/><path d="M1670 425V557H1892" class="flow"/><text x="1680" y="447" class="small-text">N</text><path d="M2128 557H2212V367H2232" class="flow"/><text x="2138" y="548" class="small-text">补充后继续</text><text x="106" y="698" class="note-text">业务口径：SCOS基于受益范围和有效动因完成费用池计算并生成结果，再由数据中台持久化分摊版本。</text></svg>
