<?xml version="1.0" encoding="UTF-8"?>
<svg xmlns="http://www.w3.org/2000/svg" width="2200" height="680" viewBox="0 0 2200 680">
<defs><marker id="arrow" markerWidth="9" markerHeight="9" refX="8" refY="4.5" orient="auto"><path d="M0 0L9 4.5 0 9Z" fill="#222"/></marker><style>.title{font:bold 18px 'PingFang SC','Microsoft YaHei',sans-serif;fill:#222}.lane{font:15px 'PingFang SC','Microsoft YaHei',sans-serif;fill:#333}.node{fill:#fff;stroke:#8a8a8a;stroke-width:1.2}.decision{fill:#fff;stroke:#8a8a8a;stroke-width:1.2}.txt{font:13px 'PingFang SC','Microsoft YaHei',sans-serif;fill:#222}.small{font:11px 'PingFang SC','Microsoft YaHei',sans-serif;fill:#333}.flow{fill:none;stroke:#222;stroke-width:1.5;marker-end:url(#arrow)}.tag{font:bold 10px 'PingFang SC','Microsoft YaHei',sans-serif;fill:#fff}</style></defs>
<rect width="2200" height="680" fill="#fff"/><rect x="18" y="18" width="2164" height="596" fill="#fff" stroke="#aaa"/><text x="30" y="50" class="title">流程编号及名称：（P-ZLTC-SCOS-FYCB-009 成本异常识别和预警流程）</text><rect x="18" y="74" width="2164" height="540" fill="#fff" stroke="#999"/><rect x="18" y="74" width="60" height="540" fill="#fafafa" stroke="#999"/><path d="M18 209H2182" stroke="#bbb"/><path d="M18 344H2182" stroke="#bbb"/><path d="M18 479H2182" stroke="#bbb"/><text x="48" y="114.5" class="lane" text-anchor="middle"><tspan x="48" dy="0">S</tspan><tspan x="48" dy="18">C</tspan><tspan x="48" dy="18">O</tspan><tspan x="48" dy="18">S</tspan></text><text x="48" y="231.5" class="lane" text-anchor="middle"><tspan x="48" dy="0">成</tspan><tspan x="48" dy="18">本</tspan><tspan x="48" dy="18">分</tspan><tspan x="48" dy="18">析</tspan><tspan x="48" dy="18">人</tspan><tspan x="48" dy="18">员</tspan></text><text x="48" y="384.5" class="lane" text-anchor="middle"><tspan x="48" dy="0">责</tspan><tspan x="48" dy="18">任</tspan><tspan x="48" dy="18">部</tspan><tspan x="48" dy="18">门</tspan></text><text x="48" y="501.5" class="lane" text-anchor="middle"><tspan x="48" dy="0">供</tspan><tspan x="48" dy="18">应</tspan><tspan x="48" dy="18">链</tspan><tspan x="48" dy="18">驾</tspan><tspan x="48" dy="18">驶</tspan><tspan x="48" dy="18">舱</tspan></text><circle cx="125" cy="141.5" r="24" class="node"/><text x="125" y="146.5" class="small" text-anchor="middle">开始</text><rect x="168" y="101.5" width="204" height="80" class="node"/><text x="270" y="136.5" class="txt" text-anchor="middle"><tspan x="270" dy="0">10 监测成本指标与控</tspan><tspan x="270" dy="18">制阈值</tspan></text><rect x="168" y="101.5" width="48" height="18" fill="#058fc7"/><text x="192" y="114.5" class="tag" text-anchor="middle">SCOS</text><polygon points="530,91.5 606,141.5 530,191.5 454,141.5" class="decision"/><text x="530" y="136.5" class="txt" text-anchor="middle"><tspan x="530" dy="0">20 判断是否形成成</tspan><tspan x="530" dy="18">本异常</tspan></text><rect x="688" y="101.5" width="204" height="80" class="node"/><text x="790" y="136.5" class="txt" text-anchor="middle"><tspan x="790" dy="0">30 定位异常来源与影</tspan><tspan x="790" dy="18">响范围</tspan></text><rect x="688" y="101.5" width="48" height="18" fill="#058fc7"/><text x="712" y="114.5" class="tag" text-anchor="middle">SCOS</text><rect x="948" y="236.5" width="204" height="80" class="node"/><text x="1050" y="271.5" class="txt" text-anchor="middle"><tspan x="1050" dy="0">40 复核异常并分派责</tspan><tspan x="1050" dy="18">任任务</tspan></text><rect x="1208" y="371.5" width="204" height="80" class="node"/><text x="1310" y="406.5" class="txt" text-anchor="middle"><tspan x="1310" dy="0">50 调查原因并反馈处</tspan><tspan x="1310" dy="18">理结果</tspan></text><polygon points="1570,226.5 1646,276.5 1570,326.5 1494,276.5" class="decision"/><text x="1570" y="271.5" class="txt" text-anchor="middle"><tspan x="1570" dy="0">60 判断异常是否已</tspan><tspan x="1570" dy="18">闭环</tspan></text><rect x="1728" y="506.5" width="204" height="80" class="node"/><text x="1830" y="541.5" class="txt" text-anchor="middle"><tspan x="1830" dy="0">70 更新预警状态并发</tspan><tspan x="1830" dy="18">布</tspan></text><rect x="1728" y="506.5" width="48" height="18" fill="#058fc7"/><text x="1752" y="519.5" class="tag" text-anchor="middle">SCOS</text><circle cx="2135" cy="546.5" r="24" class="node"/><text x="2135" y="551.5" class="small" text-anchor="middle">结束</text><path d="M149 141.5H168" class="flow"/><path d="M372 141.5H454" class="flow"/><path d="M606 141.5H688" class="flow"/><text x="614" y="133.5" class="small">Y</text><path d="M892 141.5H920V276.5H948" class="flow"/><path d="M1152 276.5H1180V411.5H1208" class="flow"/><path d="M1412 411.5H1453V276.5H1494" class="flow"/><path d="M1646 276.5H1687V546.5H1728" class="flow"/><text x="1654" y="268.5" class="small">Y</text><path d="M1932 546.5H2111" class="flow"/><path d="M530 191.5V602H2135V570.5" class="flow"/><text x="542" y="208.5" class="small">N</text><path d="M1570 326.5V582H1310V451.5" class="flow"/><text x="1328" y="575" class="small">N</text><text x="30" y="654" class="small">阈值用于触发预警、冻结和审批，不直接等同于损失认定；未解决异常保持开放并持续展示。</text></svg>
