<?xml version="1.0" encoding="UTF-8"?>
<svg xmlns="http://www.w3.org/2000/svg" width="2200" height="680" viewBox="0 0 2200 680">
<defs><marker id="arrow" markerWidth="9" markerHeight="9" refX="8" refY="4.5" orient="auto"><path d="M0 0L9 4.5 0 9Z" fill="#222"/></marker><style>.title{font:bold 18px 'PingFang SC','Microsoft YaHei',sans-serif;fill:#222}.lane{font:15px 'PingFang SC','Microsoft YaHei',sans-serif;fill:#333}.node{fill:#fff;stroke:#8a8a8a;stroke-width:1.2}.decision{fill:#fff;stroke:#8a8a8a;stroke-width:1.2}.txt{font:13px 'PingFang SC','Microsoft YaHei',sans-serif;fill:#222}.small{font:11px 'PingFang SC','Microsoft YaHei',sans-serif;fill:#333}.flow{fill:none;stroke:#222;stroke-width:1.5;marker-end:url(#arrow)}.tag{font:bold 10px 'PingFang SC','Microsoft YaHei',sans-serif;fill:#fff}</style></defs>
<rect width="2200" height="680" fill="#fff"/><rect x="18" y="18" width="2164" height="596" fill="#fff" stroke="#aaa"/><text x="30" y="50" class="title">流程编号及名称：（P-ZLTC-SCOS-FYCB-003 批次上可直接计算成本归集流程）</text><rect x="18" y="74" width="2164" height="540" fill="#fff" stroke="#999"/><rect x="18" y="74" width="60" height="540" fill="#fafafa" stroke="#999"/><path d="M18 209H2182" stroke="#bbb"/><path d="M18 344H2182" stroke="#bbb"/><path d="M18 479H2182" stroke="#bbb"/><text x="48" y="87.5" class="lane" text-anchor="middle"><tspan x="48" dy="0">财</tspan><tspan x="48" dy="18">务</tspan><tspan x="48" dy="18">及</tspan><tspan x="48" dy="18">来</tspan><tspan x="48" dy="18">源</tspan><tspan x="48" dy="18">系</tspan><tspan x="48" dy="18">统</tspan></text><text x="48" y="249.5" class="lane" text-anchor="middle"><tspan x="48" dy="0">S</tspan><tspan x="48" dy="18">C</tspan><tspan x="48" dy="18">O</tspan><tspan x="48" dy="18">S</tspan></text><text x="48" y="384.5" class="lane" text-anchor="middle"><tspan x="48" dy="0">财</tspan><tspan x="48" dy="18">务</tspan><tspan x="48" dy="18">成</tspan><tspan x="48" dy="18">本</tspan></text><text x="48" y="501.5" class="lane" text-anchor="middle"><tspan x="48" dy="0">下</tspan><tspan x="48" dy="18">游</tspan><tspan x="48" dy="18">成</tspan><tspan x="48" dy="18">本</tspan><tspan x="48" dy="18">计</tspan><tspan x="48" dy="18">算</tspan></text><circle cx="125" cy="141.5" r="24" class="node"/><text x="125" y="146.5" class="small" text-anchor="middle">开始</text><rect x="168" y="101.5" width="204" height="80" class="node"/><text x="270" y="136.5" class="txt" text-anchor="middle"><tspan x="270" dy="0">10 接收并标准化成本</tspan><tspan x="270" dy="18">记录</tspan></text><rect x="168" y="101.5" width="72" height="18" fill="#08a05c"/><text x="204" y="114.5" class="tag" text-anchor="middle">外部系统</text><rect x="428" y="236.5" width="204" height="80" class="node"/><text x="530" y="271.5" class="txt" text-anchor="middle"><tspan x="530" dy="0">20 校验唯一键与对象</tspan><tspan x="530" dy="18">定位</tspan></text><rect x="428" y="236.5" width="48" height="18" fill="#058fc7"/><text x="452" y="249.5" class="tag" text-anchor="middle">SCOS</text><polygon points="790,226.5 866,276.5 790,326.5 714,276.5" class="decision"/><text x="790" y="271.5" class="txt" text-anchor="middle"><tspan x="790" dy="0">30 判断能否直接计</tspan><tspan x="790" dy="18">入批次</tspan></text><rect x="948" y="236.5" width="204" height="80" class="node"/><text x="1050" y="280.5" class="txt" text-anchor="middle"><tspan x="1050" dy="0">40 转入候选费用池</tspan></text><rect x="948" y="236.5" width="48" height="18" fill="#058fc7"/><text x="972" y="249.5" class="tag" text-anchor="middle">SCOS</text><rect x="1208" y="236.5" width="204" height="80" class="node"/><text x="1310" y="271.5" class="txt" text-anchor="middle"><tspan x="1310" dy="0">50 直接计入发生节点</tspan><tspan x="1310" dy="18">批次</tspan></text><rect x="1208" y="236.5" width="48" height="18" fill="#058fc7"/><text x="1232" y="249.5" class="tag" text-anchor="middle">SCOS</text><rect x="1468" y="371.5" width="204" height="80" class="node"/><text x="1570" y="406.5" class="txt" text-anchor="middle"><tspan x="1570" dy="0">60 复核并发布当前成</tspan><tspan x="1570" dy="18">本版本</tspan></text><circle cx="2135" cy="546.5" r="24" class="node"/><text x="2135" y="551.5" class="small" text-anchor="middle">结束</text><path d="M149 141.5H168" class="flow"/><path d="M372 141.5H400V276.5H428" class="flow"/><path d="M632 276.5H714" class="flow"/><path d="M866 276.5H1208" class="flow"/><text x="874" y="268.5" class="small">Y</text><path d="M1412 276.5H1440V411.5H1468" class="flow"/><path d="M1672 411.5H1891.5V546.5H2111" class="flow"/><path d="M790 326.5V602H1050V316.5" class="flow"/><text x="808" y="595" class="small">N</text><path d="M1570 461.5V582H530V316.5" class="flow"/><text x="548" y="575" class="small">退回修正</text><text x="30" y="654" class="small">只有业务键唯一、对象可定位且金额完整的记录才直接计批；否则进入候选费用池，且必须与直计来源去重。</text></svg>
