<?xml version="1.0" encoding="UTF-8"?>
<svg xmlns="http://www.w3.org/2000/svg" width="2840" height="860" viewBox="0 0 2840 860">
<defs><marker id="arrow" markerWidth="9" markerHeight="9" refX="8.4" refY="4.5" orient="auto"><path d="M0 0L9 4.5 0 9Z" fill="#111"/></marker><style>.title{font:600 23px SimSun,'Songti SC',STSong,serif;fill:#222}.lane-text{font:15px SimSun,'Songti SC',STSong,serif;fill:#222}.node-text{font:16px SimSun,'Songti SC',STSong,serif;fill:#222}.small-text{font:15px SimSun,'Songti SC',STSong,serif;fill:#333}.note-text{font:14px SimSun,'Songti SC',STSong,serif;fill:#444}.tag-text{font:14px Arial,'Microsoft YaHei',sans-serif;fill:#fff}.node{fill:#fff;stroke:#999;stroke-width:1.2}.divider{stroke:#aaa;stroke-width:1}.flow{fill:none;stroke:#111;stroke-width:1.6;marker-end:url(#arrow)}.tag-scos{fill:#0795c9}.tag-data{fill:#06a15f}</style></defs><rect width="2840" height="860" fill="#fff"/><rect x="20" y="20" width="2800" height="682" fill="#fff" stroke="#aaa"/><text x="34" y="55" class="title">流程编号及名称：（P-ZLTC-SCOS-FYCB-007 基于销售订单成本的多维度成本分析流程）</text><rect x="20" y="82" width="2800" height="620" fill="#fff" stroke="#999"/><rect x="20" y="82" width="72" height="620" fill="#fafafa" stroke="#999"/><path d="M20 237H2820" class="divider"/><path d="M20 392H2820" class="divider"/><path d="M20 547H2820" class="divider"/><text x="56" y="119.5" text-anchor="middle" class="lane-text"><tspan x="56" dy="0">经</tspan><tspan x="56" dy="16">营</tspan><tspan x="56" dy="16">分</tspan><tspan x="56" dy="16">析</tspan><tspan x="56" dy="16">人</tspan><tspan x="56" dy="16">员</tspan></text><text x="56" y="258.5" text-anchor="middle" class="lane-text"><tspan x="56" dy="0">S</tspan><tspan x="56" dy="16">C</tspan><tspan x="56" dy="16">O</tspan><tspan x="56" dy="16">S</tspan><tspan x="56" dy="16">系</tspan><tspan x="56" dy="16">统</tspan><tspan x="56" dy="16">自</tspan><tspan x="56" dy="16">动</tspan></text><text x="56" y="437.5" text-anchor="middle" class="lane-text"><tspan x="56" dy="0">成</tspan><tspan x="56" dy="16">本</tspan><tspan x="56" dy="16">核</tspan><tspan x="56" dy="16">算</tspan><tspan x="56" dy="16">员</tspan></text><text x="56" y="576.5" text-anchor="middle" class="lane-text"><tspan x="56" dy="0">财</tspan><tspan x="56" dy="16">务</tspan><tspan x="56" dy="16">成</tspan><tspan x="56" dy="16">本</tspan><tspan x="56" dy="16">负</tspan><tspan x="56" dy="16">责</tspan><tspan x="56" dy="16">人</tspan></text><circle cx="145" cy="159.5" r="26" class="node"/><text x="145" y="164.5" text-anchor="middle" class="small-text">开始</text><rect x="188" y="115.5" width="224" height="88" class="node"/><rect x="188" y="115.5" width="54" height="20" class="tag-scos"/><text x="215" y="130.5" text-anchor="middle" class="tag-text">SCOS</text><text x="300" y="155.5" text-anchor="middle" class="node-text"><tspan x="300" dy="0">10 设定时间范围版本与</tspan><tspan x="300" dy="20">成本视图</tspan></text><rect x="488" y="270.5" width="224" height="88" class="node"/><rect x="488" y="270.5" width="54" height="20" class="tag-scos"/><text x="515" y="285.5" text-anchor="middle" class="tag-text">SCOS</text><text x="600" y="310.5" text-anchor="middle" class="node-text"><tspan x="600" dy="0">20 汇集销售订单成本及</tspan><tspan x="600" dy="20">维度映射</tspan></text><rect x="788" y="270.5" width="224" height="88" class="node"/><rect x="788" y="270.5" width="54" height="20" class="tag-scos"/><text x="815" y="285.5" text-anchor="middle" class="tag-text">SCOS</text><text x="900" y="310.5" text-anchor="middle" class="node-text"><tspan x="900" dy="0">30 计算订单与客户成本</tspan><tspan x="900" dy="20">指标</tspan></text><rect x="1088" y="270.5" width="224" height="88" class="node"/><rect x="1088" y="270.5" width="54" height="20" class="tag-scos"/><text x="1115" y="285.5" text-anchor="middle" class="tag-text">SCOS</text><text x="1200" y="310.5" text-anchor="middle" class="node-text"><tspan x="1200" dy="0">40 计算供应商与产品成</tspan><tspan x="1200" dy="20">本指标</tspan></text><polygon points="1500,260.5 1582,314.5 1500,368.5 1418,314.5" class="node"/><rect x="1428" y="270.5" width="54" height="20" class="tag-scos"/><text x="1455" y="285.5" text-anchor="middle" class="tag-text">SCOS</text><text x="1500" y="310.5" text-anchor="middle" class="node-text"><tspan x="1500" dy="0">50 判断分析数据口径是</tspan><tspan x="1500" dy="20">否完整</tspan></text><rect x="1688" y="425.5" width="224" height="88" class="node"/><rect x="1688" y="425.5" width="54" height="20" class="tag-scos"/><text x="1715" y="440.5" text-anchor="middle" class="tag-text">SCOS</text><text x="1800" y="465.5" text-anchor="middle" class="node-text"><tspan x="1800" dy="0">60 复核差异并发起数据</tspan><tspan x="1800" dy="20">修正</tspan></text><rect x="1988" y="115.5" width="224" height="88" class="node"/><rect x="1988" y="115.5" width="54" height="20" class="tag-scos"/><text x="2015" y="130.5" text-anchor="middle" class="tag-text">SCOS</text><text x="2100" y="155.5" text-anchor="middle" class="node-text"><tspan x="2100" dy="0">70 确认分析结论与展示</tspan><tspan x="2100" dy="20">范围</tspan></text><rect x="2288" y="580.5" width="224" height="88" class="node"/><rect x="2288" y="580.5" width="54" height="20" class="tag-scos"/><text x="2315" y="595.5" text-anchor="middle" class="tag-text">SCOS</text><text x="2400" y="620.5" text-anchor="middle" class="node-text"><tspan x="2400" dy="0">80 发布多维成本看板与</tspan><tspan x="2400" dy="20">明细</tspan></text><circle cx="2770" cy="624.5" r="26" class="node"/><text x="2770" y="629.5" text-anchor="middle" class="small-text">结束</text><path d="M338 87.5H514V138.5Q470 152.5 426 138.5Q382 124.5 338 138.5Z" class="node"/><rect x="338" y="87.5" width="64" height="18" class="tag-data"/><text x="370" y="101.5" text-anchor="middle" class="tag-text">数据服务</text><text x="426" y="118.5" text-anchor="middle" class="small-text"><tspan x="426" dy="0">本次成本分析条件</tspan></text><path d="M1238 242.5H1414V293.5Q1370 307.5 1326 293.5Q1282 279.5 1238 293.5Z" class="node"/><rect x="1238" y="242.5" width="64" height="18" class="tag-scos"/><text x="1270" y="256.5" text-anchor="middle" class="tag-text">SCOS</text><text x="1326" y="273.5" text-anchor="middle" class="small-text"><tspan x="1326" dy="0">订单客户供应商产品指</tspan><tspan x="1326" dy="17">标集</tspan></text><path d="M2438 552.5H2614V603.5Q2570 617.5 2526 603.5Q2482 589.5 2438 603.5Z" class="node"/><rect x="2438" y="552.5" width="64" height="18" class="tag-scos"/><text x="2470" y="566.5" text-anchor="middle" class="tag-text">SCOS</text><text x="2526" y="583.5" text-anchor="middle" class="small-text"><tspan x="2526" dy="0">多维成本分析看板</tspan></text><path d="M171 159.5H188" class="flow"/><path d="M412 159.5H470V314.5H488" class="flow"/><path d="M712 314.5H788" class="flow"/><path d="M1012 314.5H1088" class="flow"/><path d="M1312 314.5H1418" class="flow"/><path d="M1582 314.5H1970V159.5H1988" class="flow"/><text x="1592" y="305.5" class="small-text">Y</text><path d="M2212 159.5H2270V624.5H2288" class="flow"/><path d="M2512 624.5H2744" class="flow"/><path d="M1500 368.5V469.5H1688" class="flow"/><text x="1510" y="390.5" class="small-text">N</text><path d="M1800 513.5V684H600V358.5" class="flow"/><text x="618" y="677" class="small-text">补充/修正后返回</text><text x="106" y="749" class="note-text">业务口径：分析至少支持订单、客户、供应商、产品四个维度和时间范围筛选，并明确成本视图、计量口径及版本状态。</text></svg>
