<svg xmlns="http://www.w3.org/2000/svg" width="2800" height="960" viewBox="0 0 1780 610"><defs><marker id="a" markerWidth="6" markerHeight="6" refX="6" refY="3" orient="auto"><path d="M0 0L6 3 0 6Z" fill="#333"/></marker><style>.tt{font-family:'SimSun','Songti SC','STSong',serif;font-size:15px;font-weight:600;fill:#1a1a1a}
.lh{font-family:'SimSun','Songti SC','STSong',serif;font-size:11px;fill:#222;text-anchor:middle}
.tx{font-family:'SimSun','Songti SC','STSong',serif;font-size:10.2px;fill:#222}
.sm{font-family:'SimSun','Songti SC','STSong',serif;font-size:9.5px;fill:#222}
.note{font-family:'SimSun','Songti SC','STSong',serif;font-size:9px;fill:#444}
.b,.s,.x,.d{fill:#fff;stroke:#8b8b8b;stroke-width:.86}
.f{fill:none;stroke:#111;stroke-width:1.27;stroke-linejoin:round;stroke-linecap:square;marker-end:url(#a)}</style></defs><rect width="1780" height="610" fill="#fff"/><rect x="20" y="15" width="1740" height="40" fill="#fff" stroke="#777" stroke-width=".75"/><text x="24" y="34" class="tt">流程编号及名称：（P-ZLTC-SCOS-JSC-007 供应链情景模拟与影响评估流程）</text><rect x="20" y="55" width="1740" height="535" fill="#fff" stroke="#777" stroke-width=".75"/><rect x="20" y="55" width="45" height="535" fill="#fff" stroke="#777" stroke-width=".75"/><path d="M20 218H1760M20 381H1760" stroke="#aaa"/><text x="42.5" y="105.8" class="lh"><tspan x="42.5">决</tspan><tspan x="42.5" dy="13.5">策</tspan><tspan x="42.5" dy="13.5">管</tspan><tspan x="42.5" dy="13.5">理</tspan><tspan x="42.5" dy="13.5">人</tspan><tspan x="42.5" dy="13.5">员</tspan></text><text x="42.5" y="289.0" class="lh"><tspan x="42.5">驾</tspan><tspan x="42.5" dy="13.5">驶</tspan><tspan x="42.5" dy="13.5">舱</tspan></text><text x="42.5" y="448.0" class="lh"><tspan x="42.5">各</tspan><tspan x="42.5" dy="13.5">业</tspan><tspan x="42.5" dy="13.5">务</tspan><tspan x="42.5" dy="13.5">模</tspan><tspan x="42.5" dy="13.5">型</tspan><tspan x="42.5" dy="13.5">服</tspan><tspan x="42.5" dy="13.5">务</tspan></text><circle cx="100" cy="137" r="20" class="x"/><text x="100" y="142" text-anchor="middle" class="sm">开始</text><rect x="240" y="101" width="180" height="72" class="b"/><text x="330" y="116" text-anchor="middle" class="tx"><tspan x="330">10</tspan><tspan x="330" dy="19">选择模拟情景</tspan><tspan x="330" dy="19">设定假设参数</tspan></text><rect x="470" y="264" width="180" height="72" class="s"/><text x="560" y="279" text-anchor="middle" class="tx"><tspan x="560">20</tspan><tspan x="560" dy="19">冻结当前基线</tspan><tspan x="560" dy="19">构建沙盘快照</tspan></text><rect x="700" y="427" width="180" height="72" class="b"/><text x="790" y="442" text-anchor="middle" class="tx"><tspan x="790">30</tspan><tspan x="790" dy="19">调用相关</tspan><tspan x="790" dy="19">业务模型计算</tspan></text><polygon points="1010,256 1080,300 1010,344 940,300" class="d"/><text x="1010" y="286" text-anchor="middle" class="tx"><tspan x="1010">40</tspan><tspan x="1010" dy="19">模拟结果</tspan><tspan x="1010" dy="19">是否完整可比？</tspan></text><rect x="1130" y="264" width="190" height="72" class="s"/><text x="1225" y="279" text-anchor="middle" class="tx"><tspan x="1225">50</tspan><tspan x="1225" dy="19">比较基线与情景</tspan><tspan x="1225" dy="19">评估成本服务风险</tspan></text><rect x="1370" y="264" width="190" height="72" class="s"/><text x="1465" y="279" text-anchor="middle" class="tx"><tspan x="1465">60</tspan><tspan x="1465" dy="19">形成影响结论</tspan><tspan x="1465" dy="19">风险提示与备选方案</tspan></text><rect x="1590" y="101" width="140" height="72" class="x"/><text x="1660" y="116" text-anchor="middle" class="tx"><tspan x="1660">70</tspan><tspan x="1660" dy="19">审阅</tspan><tspan x="1660" dy="19">模拟结果</tspan></text><path d="M120 137H240" class="f"/><path d="M420 137H445V300H470" class="f"/><path d="M650 300H675V463H700" class="f"/><path d="M880 463H910V300H940" class="f"/><path d="M1080 300H1130" class="f"/><path d="M1320 300H1370" class="f"/><path d="M1560 300H1575V137H1590" class="f"/><circle cx="1730" cy="220" r="20" class="x"/><text x="1730" y="225" text-anchor="middle" class="sm">结束</text><path d="M1660 173V190H1730V200" class="f"/><path d="M1010 344V535H790V499" class="f"/><text x="820" y="530" class="sm">N：修正参数或重算</text><text x="180" y="580" class="note">业务口径：采购情景覆盖价格、供应商能力/风险、集中度和采购组合；库存情景覆盖服务水平与生产补充周期变化。</text><g font-family="Arial,Microsoft YaHei,sans-serif" font-size="9" font-weight="normal" fill="#fff"><rect x="240" y="101" width="54" height="18" fill="#0088c7"/><text x="267" y="114" text-anchor="middle">驾驶舱</text><rect x="470" y="264" width="54" height="18" fill="#0088c7"/><text x="497" y="277" text-anchor="middle">驾驶舱</text><rect x="700" y="427" width="54" height="18" fill="#00a651"/><text x="727" y="440" text-anchor="middle">模型服务</text><rect x="920" y="264" width="54" height="18" fill="#0088c7"/><text x="947" y="277" text-anchor="middle">驾驶舱</text><rect x="1130" y="264" width="54" height="18" fill="#0088c7"/><text x="1157" y="277" text-anchor="middle">驾驶舱</text><rect x="1370" y="264" width="54" height="18" fill="#0088c7"/><text x="1397" y="277" text-anchor="middle">驾驶舱</text></g></svg>
