<svg xmlns="http://www.w3.org/2000/svg" width="2800" height="960" viewBox="0 0 1780 610"><defs><marker id="a" markerWidth="6" markerHeight="6" refX="6" refY="3" orient="auto"><path d="M0 0L6 3 0 6Z" fill="#333"/></marker><style>.tt{font-family:'SimSun','Songti SC','STSong',serif;font-size:15px;font-weight:600;fill:#1a1a1a}
.lh{font-family:'SimSun','Songti SC','STSong',serif;font-size:11px;fill:#222;text-anchor:middle}
.tx{font-family:'SimSun','Songti SC','STSong',serif;font-size:10.2px;fill:#222}
.sm{font-family:'SimSun','Songti SC','STSong',serif;font-size:9.5px;fill:#222}
.note{font-family:'SimSun','Songti SC','STSong',serif;font-size:9px;fill:#444}
.b,.s,.x,.d{fill:#fff;stroke:#8b8b8b;stroke-width:.86}
.f{fill:none;stroke:#111;stroke-width:1.27;stroke-linejoin:round;stroke-linecap:square;marker-end:url(#a)}</style></defs><rect width="1780" height="610" fill="#fff"/><rect x="20" y="15" width="1740" height="40" fill="#fff" stroke="#777" stroke-width=".75"/><text x="24" y="34" class="tt">流程编号及名称：（P-ZLTC-SCOS-JSC-004 KPI异常钻取与根因分析流程）</text><rect x="20" y="55" width="1740" height="535" fill="#fff" stroke="#777" stroke-width=".75"/><rect x="20" y="55" width="45" height="535" fill="#fff" stroke="#777" stroke-width=".75"/><path d="M20 177H1760M20 299H1760M20 421H1760" stroke="#aaa"/><text x="42.5" y="85.2" class="lh"><tspan x="42.5">运</tspan><tspan x="42.5" dy="13.5">营</tspan><tspan x="42.5" dy="13.5">管</tspan><tspan x="42.5" dy="13.5">理</tspan><tspan x="42.5" dy="13.5">人</tspan><tspan x="42.5" dy="13.5">员</tspan></text><text x="42.5" y="227.5" class="lh"><tspan x="42.5">驾</tspan><tspan x="42.5" dy="13.5">驶</tspan><tspan x="42.5" dy="13.5">舱</tspan></text><text x="42.5" y="336.0" class="lh"><tspan x="42.5">各</tspan><tspan x="42.5" dy="13.5">业</tspan><tspan x="42.5" dy="13.5">务</tspan><tspan x="42.5" dy="13.5">模</tspan><tspan x="42.5" dy="13.5">块</tspan></text><text x="42.5" y="481.5" class="lh"><tspan x="42.5">业</tspan><tspan x="42.5" dy="13.5">务</tspan><tspan x="42.5" dy="13.5">责</tspan><tspan x="42.5" dy="13.5">任</tspan><tspan x="42.5" dy="13.5">人</tspan></text><circle cx="100" cy="116" r="20" class="x"/><text x="100" y="121" text-anchor="middle" class="sm">开始</text><rect x="230" y="80" width="180" height="72" class="b"/><text x="320" y="95" text-anchor="middle" class="tx"><tspan x="320">10</tspan><tspan x="320" dy="19">选择异常KPI</tspan><tspan x="320" dy="19">或业务节点</tspan></text><rect x="455" y="206" width="180" height="72" class="s"/><text x="545" y="221" text-anchor="middle" class="tx"><tspan x="545">20</tspan><tspan x="545" dy="19">展开专题视图</tspan><tspan x="545" dy="19">和影响范围</tspan></text><rect x="680" y="206" width="180" height="72" class="s"/><text x="770" y="221" text-anchor="middle" class="tx"><tspan x="770">30</tspan><tspan x="770" dy="19">钻取明细清单</tspan><tspan x="770" dy="19">关联源单据/工单</tspan></text><polygon points="985,198 1055,242 985,286 915,242" class="d"/><text x="985" y="228" text-anchor="middle" class="tx"><tspan x="985">40</tspan><tspan x="985" dy="19">是否可定位</tspan><tspan x="985" dy="19">异常来源？</tspan></text><rect x="1100" y="324" width="180" height="72" class="b"/><text x="1190" y="339" text-anchor="middle" class="tx"><tspan x="1190">50</tspan><tspan x="1190" dy="19">调用相关模块</tspan><tspan x="1190" dy="19">进行根因分析</tspan></text><polygon points="1380,438 1450,482 1380,526 1310,482" class="d"/><text x="1380" y="468" text-anchor="middle" class="tx"><tspan x="1380">60</tspan><tspan x="1380" dy="19">根因是否</tspan><tspan x="1380" dy="19">已确认？</tspan></text><rect x="1480" y="206" width="180" height="72" class="s"/><text x="1570" y="221" text-anchor="middle" class="tx"><tspan x="1570">70</tspan><tspan x="1570" dy="19">形成根因分析</tspan><tspan x="1570" dy="19">结论及处理建议</tspan></text><path d="M120 116H230" class="f"/><path d="M410 116H432V242H455" class="f"/><path d="M635 242H680" class="f"/><path d="M860 242H915" class="f"/><path d="M1055 242H1077V360H1100" class="f"/><path d="M1280 360H1295V482H1310" class="f"/><path d="M1450 482H1465V242H1480" class="f"/><circle cx="1710" cy="242" r="20" class="x"/><text x="1710" y="247" text-anchor="middle" class="sm">结束</text><path d="M1660 242H1690" class="f"/><text x="1065" y="192" class="sm">Y</text><text x="1460" y="432" class="sm">Y</text><path d="M985 286V430H770V278" class="f"/><text x="810" y="425" class="sm">N：返回30复核</text><path d="M1380 526V535H1190V396" class="f"/><text x="1210" y="530" class="sm">N：返回50处理</text><text x="180" y="580" class="note">业务口径：钻取链路为“KPI总览→专题视图→明细清单→源单据/工单”；专业根因分析由相关业务模块承接。</text><g font-family="Arial,Microsoft YaHei,sans-serif" font-size="9" font-weight="normal" fill="#fff"><rect x="230" y="80" width="54" height="18" fill="#0088c7"/><text x="257.0" y="93" text-anchor="middle">驾驶舱</text></g><g font-family="Arial,Microsoft YaHei,sans-serif" font-size="9" font-weight="normal" fill="#fff"><rect x="455" y="206" width="54" height="18" fill="#0088c7"/><text x="482.0" y="219" text-anchor="middle">驾驶舱</text></g><g font-family="Arial,Microsoft YaHei,sans-serif" font-size="9" font-weight="normal" fill="#fff"><rect x="680" y="206" width="54" height="18" fill="#0088c7"/><text x="707.0" y="219" text-anchor="middle">驾驶舱</text></g><g font-family="Arial,Microsoft YaHei,sans-serif" font-size="9" font-weight="normal" fill="#fff"><rect x="895" y="206" width="54" height="18" fill="#0088c7"/><text x="922.0" y="219" text-anchor="middle">驾驶舱</text></g><g font-family="Arial,Microsoft YaHei,sans-serif" font-size="9" font-weight="normal" fill="#fff"><rect x="1100" y="324" width="54" height="18" fill="#00a651"/><text x="1127.0" y="337" text-anchor="middle">业务系统</text></g><g font-family="Arial,Microsoft YaHei,sans-serif" font-size="9" font-weight="normal" fill="#fff"><rect x="1290" y="446" width="54" height="18" fill="#0088c7"/><text x="1317.0" y="459" text-anchor="middle">驾驶舱</text></g><g font-family="Arial,Microsoft YaHei,sans-serif" font-size="9" font-weight="normal" fill="#fff"><rect x="1480" y="206" width="54" height="18" fill="#0088c7"/><text x="1507.0" y="219" text-anchor="middle">驾驶舱</text></g><path d="M800 174H900V216Q875 206 850 216Q825 226 800 216Z" class="x"/><text x="850" y="194" text-anchor="middle" class="sm">KPI异常明细</text><path d="M1600 174H1730V216Q1698 206 1665 216Q1633 226 1600 216Z" class="x"/><text x="1665" y="194" text-anchor="middle" class="sm">根因分析结论</text></svg>