<svg xmlns="http://www.w3.org/2000/svg" width="2800" height="960" viewBox="0 0 1780 610"><defs><marker id="a" markerWidth="6" markerHeight="6" refX="6" refY="3" orient="auto"><path d="M0 0L6 3 0 6Z" fill="#333"/></marker><style>.tt{font-family:'SimSun','Songti SC','STSong',serif;font-size:15px;font-weight:600;fill:#1a1a1a}
.lh{font-family:'SimSun','Songti SC','STSong',serif;font-size:11px;fill:#222;text-anchor:middle}
.tx{font-family:'SimSun','Songti SC','STSong',serif;font-size:10.2px;fill:#222}
.sm{font-family:'SimSun','Songti SC','STSong',serif;font-size:9.5px;fill:#222}
.note{font-family:'SimSun','Songti SC','STSong',serif;font-size:9px;fill:#444}
.b,.s,.x,.d{fill:#fff;stroke:#8b8b8b;stroke-width:.86}
.f{fill:none;stroke:#111;stroke-width:1.27;stroke-linejoin:round;stroke-linecap:square;marker-end:url(#a)}</style></defs><rect width="1780" height="610" fill="#fff"/><rect x="20" y="15" width="1740" height="40" fill="#fff" stroke="#777" stroke-width=".75"/><text x="24" y="34" class="tt">流程编号及名称：（P-ZLTC-SCOS-JSC-005 预警事件接入与分级派发流程）</text><rect x="20" y="55" width="1740" height="535" fill="#fff" stroke="#777" stroke-width=".75"/><rect x="20" y="55" width="45" height="535" fill="#fff" stroke="#777" stroke-width=".75"/><path d="M20 218H1760M20 381H1760" stroke="#aaa"/><text x="42.5" y="85.5" class="lh"><tspan x="42.5">数</tspan><tspan x="42.5" dy="13.5">据</tspan><tspan x="42.5" dy="13.5">平</tspan><tspan x="42.5" dy="13.5">台</tspan><tspan x="42.5" dy="13.5">/</tspan><tspan x="42.5" dy="13.5">业</tspan><tspan x="42.5" dy="13.5">务</tspan><tspan x="42.5" dy="13.5">模</tspan><tspan x="42.5" dy="13.5">块</tspan></text><text x="42.5" y="289.0" class="lh"><tspan x="42.5">驾</tspan><tspan x="42.5" dy="13.5">驶</tspan><tspan x="42.5" dy="13.5">舱</tspan></text><text x="42.5" y="454.8" class="lh"><tspan x="42.5">运</tspan><tspan x="42.5" dy="13.5">营</tspan><tspan x="42.5" dy="13.5">管</tspan><tspan x="42.5" dy="13.5">理</tspan><tspan x="42.5" dy="13.5">人</tspan><tspan x="42.5" dy="13.5">员</tspan></text><circle cx="100" cy="137" r="20" class="x"/><text x="100" y="142" text-anchor="middle" class="sm">开始</text><rect x="240" y="101" width="180" height="72" class="b"/><text x="330" y="116" text-anchor="middle" class="tx"><tspan x="330">10</tspan><tspan x="330" dy="19">提供预警事件</tspan><tspan x="330" dy="19">或指标越界信息</tspan></text><rect x="470" y="264" width="180" height="72" class="s"/><text x="560" y="279" text-anchor="middle" class="tx"><tspan x="560">20</tspan><tspan x="560" dy="19">校验事件信息</tspan><tspan x="560" dy="19">并聚合去重</tspan></text><rect x="700" y="264" width="180" height="72" class="s"/><text x="790" y="279" text-anchor="middle" class="tx"><tspan x="790">30</tspan><tspan x="790" dy="19">识别预警级别</tspan><tspan x="790" dy="19">与影响范围</tspan></text><rect x="930" y="264" width="180" height="72" class="s"/><text x="1020" y="279" text-anchor="middle" class="tx"><tspan x="1020">40</tspan><tspan x="1020" dy="19">匹配责任部门</tspan><tspan x="1020" dy="19">和处置责任人</tspan></text><polygon points="1240,256 1310,300 1240,344 1170,300" class="d"/><text x="1240" y="286" text-anchor="middle" class="tx"><tspan x="1240">50</tspan><tspan x="1240" dy="19">是否需要</tspan><tspan x="1240" dy="19">发起处置？</tspan></text><rect x="1360" y="427" width="180" height="72" class="s"/><text x="1450" y="442" text-anchor="middle" class="tx"><tspan x="1450">60</tspan><tspan x="1450" dy="19">确认责任人</tspan><tspan x="1450" dy="19">并派发处置任务</tspan></text><rect x="1580" y="264" width="150" height="72" class="s"/><text x="1655" y="279" text-anchor="middle" class="tx"><tspan x="1655">70</tspan><tspan x="1655" dy="19">记录派发结果</tspan><tspan x="1655" dy="19">进入跟踪队列</tspan></text><path d="M120 137H240" class="f"/><path d="M420 137H445V300H470" class="f"/><path d="M650 300H700" class="f"/><path d="M880 300H930" class="f"/><path d="M1110 300H1170" class="f"/><path d="M1310 300H1335V463H1360" class="f"/><path d="M1540 463H1560V300H1580" class="f"/><circle cx="1730" cy="390" r="20" class="x"/><text x="1730" y="395" text-anchor="middle" class="sm">结束</text><path d="M1655 336V360H1730V370" class="f"/><path d="M1240 344V390H1020V336" class="f"/><text x="1050" y="385" class="sm">N：持续监控并记录原因</text><text x="180" y="580" class="note">业务口径：一级预警优先推送；二级预警按时间排序；信息不完整或责任人无法匹配时进入待核实/待分派队列。</text><g font-family="Arial,Microsoft YaHei,sans-serif" font-size="9" font-weight="normal" fill="#fff"><rect x="240" y="101" width="54" height="18" fill="#00a651"/><text x="267" y="114" text-anchor="middle">业务系统</text><rect x="470" y="264" width="54" height="18" fill="#0088c7"/><text x="497" y="277" text-anchor="middle">驾驶舱</text><rect x="700" y="264" width="54" height="18" fill="#0088c7"/><text x="727" y="277" text-anchor="middle">驾驶舱</text><rect x="930" y="264" width="54" height="18" fill="#0088c7"/><text x="957" y="277" text-anchor="middle">驾驶舱</text><rect x="1150" y="264" width="54" height="18" fill="#0088c7"/><text x="1177" y="277" text-anchor="middle">驾驶舱</text><rect x="1360" y="427" width="54" height="18" fill="#0088c7"/><text x="1387" y="440" text-anchor="middle">驾驶舱</text><rect x="1580" y="264" width="54" height="18" fill="#0088c7"/><text x="1607" y="277" text-anchor="middle">驾驶舱</text></g></svg>
